<?xml version="1.0" standalone="no"?>
<!DOCTYPE svg PUBLIC "-//W3C//DTD SVG 20010904//EN"
 "http://www.w3.org/TR/2001/REC-SVG-20010904/DTD/svg10.dtd">
<svg version="1.0" xmlns="http://www.w3.org/2000/svg"
 width="64.000000pt" height="64.000000pt" viewBox="0 0 64.000000 64.000000"
 preserveAspectRatio="xMidYMid meet">

<g transform="translate(0.000000,64.000000) scale(0.100000,-0.100000)"
fill="#4EA8DE" stroke="none">
<path d="M65 631 c-11 -5 -29 -19 -40 -31 -19 -21 -20 -36 -20 -281 l0 -259
28 -27 c26 -26 34 -28 128 -31 106 -4 141 6 118 34 -8 10 -38 14 -104 14 -132
0 -125 -15 -125 272 0 215 2 236 18 251 16 14 45 17 190 17 211 0 202 7 202
-151 0 -83 3 -108 14 -112 30 -12 38 20 35 138 -4 110 -5 116 -32 142 l-27 28
-183 2 c-100 1 -191 -1 -202 -6z"/>
<path d="M197 509 c-30 -34 -36 -37 -47 -24 -16 19 -39 19 -47 -1 -8 -20 35
-64 63 -64 23 0 94 77 94 103 0 32 -30 25 -63 -14z"/>
<path d="M293 469 c-23 -23 -2 -39 52 -39 36 0 55 4 58 14 9 22 -14 36 -58 36
-23 0 -46 -5 -52 -11z"/>
<path d="M195 355 c-25 -32 -28 -33 -49 -19 -21 13 -25 13 -36 -1 -11 -13 -9
-20 10 -40 35 -37 63 -32 105 20 37 44 41 75 11 75 -8 0 -27 -16 -41 -35z"/>
<path d="M303 323 c-18 -7 -16 -40 3 -47 28 -11 70 -6 90 9 19 15 19 15 0 30
-19 14 -68 19 -93 8z"/>
<path d="M449 213 c-76 -78 -88 -94 -99 -141 -16 -71 -9 -77 66 -58 53 14 68
24 142 99 91 93 100 120 57 162 -43 44 -69 35 -166 -62z m138 22 c3 -9 3 -19
-1 -22 -7 -7 -36 16 -36 28 0 15 30 10 37 -6z m-93 -116 c-52 -53 -99 -72 -88
-35 3 11 27 42 52 68 43 45 47 47 64 31 18 -16 17 -19 -28 -64z"/>
<path d="M196 206 c-26 -34 -28 -35 -50 -21 -21 14 -25 14 -36 0 -11 -13 -10
-19 6 -36 41 -45 52 -44 100 6 25 26 44 54 42 63 -6 30 -34 24 -62 -12z"/>
</g>
</svg>
